<svg xmlns="http://www.w3.org/2000/svg" xmlns:xlink="http://www.w3.org/1999/xlink" viewBox="0 0 81 81" fill="#fff" fill-rule="evenodd" stroke="#000" stroke-linecap="round" stroke-linejoin="round"><use xlink:href="#A" x=".5" y=".5"/><symbol id="A" overflow="visible"><path d="M80 47.723L40.099 0 0 47.525 39.901 80 80 47.723zM34.938 64.158V43.96c-3.772-1.98-6.154-5.94-6.154-10.693 0-6.535 4.963-11.881 11.117-11.881s11.117 5.347 11.117 11.881c0 4.554-2.581 8.713-6.154 10.495v3.96l-.199.198-3.772 3.96 3.97 4.159v.198l-3.573 3.96 3.375 3.763-4.963 5.148-4.764-4.951zm9.153-34.086c0-1.98-2.382-3.564-4.169-3.564-1.985 0-3.97 1.386-3.97 3.366s1.985 4.158 3.97 4.158c1.787.198 4.169-1.782 4.169-3.96z" fill="#0078d7" stroke="none"/></symbol></svg>