<svg xmlns="http://www.w3.org/2000/svg" xmlns:xlink="http://www.w3.org/1999/xlink" viewBox="0 0 66 81" fill="#fff" fill-rule="evenodd" stroke="#000" stroke-linecap="round" stroke-linejoin="round"><use xlink:href="#A" x=".5" y=".5"/><symbol id="A" overflow="visible"><path d="M64.501 76.862L41.948 39.978c-.992-1.569-2.583-1.569-3.551 0L15.843 76.862c-.992 1.569-.207 2.729 1.776 2.729h45.107c1.983.205 2.767-1.16 1.776-2.729zm-11.069-.773h-9.893v-5.844h3.966v-3.911h-5.927-2.006-5.927v3.911h3.966v5.844h-9.893v-5.844h3.966v-5.844h1.983 5.904V60.49h-3.966v-5.844h9.893v5.844h-3.966v3.911h5.927 1.983v5.844h3.966v5.844zM35.629 0H3.966C1.799 0 0 1.751 0 3.911V80h11.069c0-.773.208-1.751.784-2.547l3.159-5.276H5.904v-3.911h11.484l2.375-3.911H5.904v-3.911h16.235L36.182 37.43c.784-1.364 1.983-2.138 3.367-2.342V3.707C39.572 1.751 37.797 0 35.629 0zm-1.983 15.6H5.95v-3.911h27.696V15.6z" fill="#2a3282" stroke="none"/></symbol></svg>